HIERARCHY
ROOT Hips
{
  OFFSET 0 89.5177 0.535
  CHANNELS 6 Xposition Yposition Zposition Zrotation Xrotation Yrotation
  JOINT Spine
  {
    OFFSET 12.0259 -0.162855 1.69034e-005
    CHANNELS 3 Zrotation Xrotation Yrotation
    JOINT Spine1
    {
      OFFSET 15.3169 -0.0121922 0
      CHANNELS 3 Zrotation Xrotation Yrotation
      JOINT Spine2
      {
        OFFSET 15.3176 -0.0121908 0
        CHANNELS 3 Zrotation Xrotation Yrotation
        JOINT Neck
        {
          OFFSET 19.9142 1.56338 0
          CHANNELS 3 Zrotation Xrotation Yrotation
          JOINT Head
          {
            OFFSET 6.92651 0 0
            CHANNELS 3 Zrotation Xrotation Yrotation
            End Site
            {
              OFFSET 20.7666 0 0
            }
          }
          JOINT LeftShoulder
          {
            OFFSET -6.20654 0.708824 7.28219
            CHANNELS 3 Zrotation Xrotation Yrotation
            JOINT LeftArm
            {
              OFFSET 14.108 0 -1.52588e-005
              CHANNELS 3 Zrotation Xrotation Yrotation
              JOINT LeftForeArm
              {
                OFFSET 28.5802 0 0
                CHANNELS 3 Zrotation Xrotation Yrotation
                JOINT LeftHand
                {
                  OFFSET 27.092 0 0
                  CHANNELS 3 Zrotation Xrotation Yrotation
                  End Site
                  {
                    OFFSET 9.55928 -0.186424 0.145352
                  }
                }
              }
            }
          }
          JOINT RightShoulder
          {
            OFFSET -6.20654 0.708866 -7.28218
            CHANNELS 3 Zrotation Xrotation Yrotation
            JOINT RightArm
            {
              OFFSET 14.108 0 1.52588e-005
              CHANNELS 3 Zrotation Xrotation Yrotation
              JOINT RightForeArm
              {
                OFFSET 28.5802 0 0
                CHANNELS 3 Zrotation Xrotation Yrotation
                JOINT RightHand
                {
                  OFFSET 27.092 0 0
                  CHANNELS 3 Zrotation Xrotation Yrotation
                  End Site
                  {
                    OFFSET 9.55929 -0.186417 -0.145354
                  }
                }
              }
            }
          }
        }
      }
    }
  }
  JOINT LeftUpLeg
  {
    OFFSET 0.005 -0.535 8.837
    CHANNELS 3 Zrotation Xrotation Yrotation
    JOINT LeftLeg
    {
      OFFSET 39.9035 0 0
      CHANNELS 3 Zrotation Xrotation Yrotation
      JOINT LeftFoot
      {
        OFFSET 39.6689 0 0
        CHANNELS 3 Zrotation Xrotation Yrotation
        JOINT LeftToe
        {
          OFFSET 10.1624 13.6296 0
          CHANNELS 3 Zrotation Xrotation Yrotation
          End Site
          {
            OFFSET 8.38147 0 0
          }
        }
      }
    }
  }
  JOINT RightUpLeg
  {
    OFFSET 0.005 -0.535 -8.837
    CHANNELS 3 Zrotation Xrotation Yrotation
    JOINT RightLeg
    {
      OFFSET 39.9035 0 0
      CHANNELS 3 Zrotation Xrotation Yrotation
      JOINT RightFoot
      {
        OFFSET 39.6689 0 0
        CHANNELS 3 Zrotation Xrotation Yrotation
        JOINT RightToe
        {
          OFFSET 10.1624 13.6296 0
          CHANNELS 3 Zrotation Xrotation Yrotation
          End Site
          {
            OFFSET 8.38147 0 0
          }
        }
      }
    }
  }
}
MOTION
Frames:	14
Frame Time:	0.0333333
192.92 88.5638 -156.846 -155.913 -84.0561 115.857 -0.98004 -0.976247 -0.997911 -1.97735 -1.93467 -2.01263 -1.97735 -1.93467 -2.01264 -8.30728e-012 -9.0191e-006 -5.27751e-005 12.4314 2.9758 -2.47486 -177.169 -28.8908 -84.1566 -22.4654 -42.1423 6.20812 -11.0374 -3.18055e-015 -3.18055e-015 -26.7066 -53.95 -30.0424 -178.372 20.7714 85.4174 -29.3159 37.9207 -1.80416 -6.98464 -3.18055e-015 -7.95139e-016 -65.5357 67.2733 68.7298 -5.06116 10.9674 -179.993 -13.0371 6.36111e-015 7.95139e-016 13.7252 5.4199 -4.98807 90 1.92573e-016 3.97569e-016 -6.49256 -15.3925 175.621 -13.9969 6.36111e-015 2.38542e-015 13.4688 -1.4144 2.50727 90 -3.4882e-020 3.18055e-015 
192.92 88.5644 -156.819 -155.854 -84.0641 115.92 -0.976102 -0.980346 -0.997649 -1.96955 -1.94294 -2.01211 -1.96955 -1.94294 -2.01212 -8.30748e-012 -9.0191e-006 -5.27751e-005 12.5275 2.94017 -2.4398 -177.134 -28.8936 -84.0841 -22.4652 -41.9096 6.31467 -11.1896 6.36111e-015 -0 -26.7143 -54.009 -30.0583 -178.357 20.7709 85.3767 -29.3756 37.7777 -1.8401 -6.99523 0 1.59028e-015 -65.5195 67.3327 68.7117 -5.08579 10.987 -179.994 -13.0702 -4.77083e-015 -7.95139e-016 13.7362 5.43413 -4.97703 90 -3.23025e-016 3.97569e-016 -6.52139 -15.3856 175.614 -14.0347 6.36111e-015 -7.95139e-016 13.4697 -1.41023 2.50082 90 1.51661e-020 -3.18055e-015 
192.92 88.5644 -156.79 -155.885 -84.0537 115.899 -0.977859 -0.981018 -0.997033 -1.97319 -1.94418 -2.01702 -1.97319 -1.94418 -2.01703 -8.30748e-012 -9.0191e-006 -5.27751e-005 12.6716 2.86808 -2.33304 -177.112 -28.9076 -84.0414 -22.5907 -41.9372 6.3795 -11.1014 -6.36111e-015 3.18055e-015 -26.558 -53.9763 -29.8909 -178.352 20.7867 85.3664 -29.4118 37.6943 -1.92416 -6.96834 -3.18055e-015 -7.95139e-016 -65.4596 67.3621 68.6465 -5.12414 10.9977 180 -13.0906 0 3.97569e-016 13.7377 5.44182 -4.96436 90 3.41661e-016 7.95139e-016 -6.58636 -15.3916 175.595 -14.0911 6.36111e-015 -0 13.4722 -1.42588 2.49654 90 -5.82377e-019 9.54166e-015 
192.928 88.5649 -156.764 -155.878 -84.0751 115.899 -0.974056 -0.982748 -0.996436 -1.96593 -1.95293 -2.02194 -1.96593 -1.95293 -2.02195 -8.30708e-012 -9.0191e-006 -5.27751e-005 12.7932 2.72565 -2.21089 -177.098 -28.8784 -84.007 -22.6278 -41.8737 6.44297 -11.0784 3.18055e-015 4.77083e-015 -26.3919 -54.0009 -29.7211 -178.341 20.8155 85.3417 -29.5097 37.5491 -1.93274 -6.9152 3.18055e-015 7.95139e-016 -65.3856 67.4087 68.5658 -5.15488 11.0123 -179.981 -13.1476 -1.59028e-015 -0 13.7567 5.46234 -4.9676 90 -3.29237e-016 -3.97569e-016 -6.5851 -15.3889 175.607 -14.1069 9.54167e-015 -0 13.4729 -1.42342 2.48528 90 -7.58303e-021 -3.18055e-015 
192.941 88.5656 -156.732 -155.483 -84.0935 116.289 -0.96329 -0.984593 -0.99584 -1.94427 -1.95153 -2.0217 -1.94427 -1.95153 -2.02171 -8.30728e-012 -9.0191e-006 -5.27751e-005 12.8925 2.62091 -2.10772 -177.098 -28.8756 -84.0063 -22.6252 -41.7483 6.54569 -11.1055 3.18055e-015 -3.18055e-015 -26.3057 -53.9932 -29.6303 -178.352 20.7947 85.3662 -29.4773 37.6473 -1.99925 -6.90495 0 7.95139e-016 -65.2998 67.4392 68.4725 -5.14855 11.0213 -179.968 -13.1572 -1.59028e-015 -3.97569e-016 13.7329 5.4471 -4.95065 90 1.47225e-015 -7.95139e-016 -6.59412 -15.3575 175.621 -14.1475 6.36111e-015 7.95139e-016 13.4694 -1.41978 2.46544 90 -9.09964e-021 -0 
192.955 88.5659 -156.697 -155.234 -84.0729 116.531 -0.96448 -0.98653 -0.995227 -1.94786 -1.9577 -2.02117 -1.94786 -1.9577 -2.02118 -8.30768e-012 -9.0191e-006 -5.27751e-005 12.9864 2.52896 -2.0616 -177.105 -28.8894 -84.0241 -22.6305 -41.7035 6.58982 -11.0611 6.36111e-015 -0 -26.2672 -53.9669 -29.5866 -178.36 20.8094 85.3924 -29.5507 37.6232 -1.96794 -6.90435 6.36111e-015 2.38542e-015 -65.3077 67.4216 68.4826 -5.18942 11.0332 -179.95 -13.1788 1.59028e-015 -0 13.7213 5.43506 -4.93356 90 -1.11816e-016 -0 -6.65034 -15.362 175.633 -14.1887 3.18056e-015 1.59028e-015 13.4628 -1.45373 2.44889 90 9.09964e-021 -0 
192.974 88.5663 -156.663 -154.729 -84.0589 117.024 -0.967285 -0.988404 -0.994577 -1.94484 -1.96387 -2.02063 -1.94484 -1.96387 -2.02064 -8.30748e-012 -9.0191e-006 -5.27751e-005 13.0562 2.49044 -2.03533 -177.118 -28.8983 -84.0532 -22.5382 -41.5445 6.62304 -11.1841 3.18055e-015 -0 -26.2618 -53.9818 -29.5829 -178.365 20.8078 85.405 -29.6281 37.5512 -1.86932 -6.91845 -3.18055e-015 7.95139e-016 -65.2818 67.4332 68.4568 -5.24786 11.1184 -179.908 -13.2697 0 -7.95139e-016 13.7652 5.4649 -4.95582 90 -2.67117e-016 7.95139e-016 -6.67833 -15.3183 175.661 -14.2202 0 7.95139e-016 13.4524 -1.45772 2.42576 90 2.57823e-020 6.36111e-015 
192.992 88.5666 -156.631 -154.284 -84.0221 117.46 -0.970609 -0.989244 -0.993874 -1.9415 -1.96091 -2.02012 -1.9415 -1.96091 -2.02013 -8.30748e-012 -9.0191e-006 -5.27751e-005 13.0847 2.43667 -2.01048 -177.105 -28.8464 -84.0154 -22.4435 -41.387 6.47963 -11.3706 -3.18055e-015 -1.59028e-015 -26.0733 -53.9498 -29.3826 -178.35 20.8402 85.3706 -29.7444 37.5871 -1.71056 -6.94599 -3.18055e-015 -7.95139e-016 -65.3348 67.4053 68.5111 -5.31135 11.1869 -179.876 -13.3297 -1.59028e-015 -0 13.7789 5.4718 -4.97446 90 1.55301e-016 -0 -6.73342 -15.2891 175.683 -14.2557 6.36111e-015 7.95139e-016 13.4442 -1.48774 2.40471 90 -6.06643e-021 -6.36111e-015 
193.021 88.5669 -156.587 -153.761 -83.9564 117.962 -0.973329 -0.986416 -0.993097 -1.95059 -1.95525 -2.01119 -1.95059 -1.95525 -2.0112 -8.30708e-012 -9.0191e-006 -5.27751e-005 13.1011 2.40781 -2.0242 -177.137 -28.8484 -84.0826 -22.2676 -41.4723 6.53407 -11.5172 6.36111e-015 -1.59028e-015 -26.3205 -54.0175 -29.6487 -178.338 20.8595 85.3408 -29.8694 37.4339 -1.52532 -6.93825 -3.18055e-015 -0 -65.3458 67.3966 68.5228 -5.40078 11.2523 -179.823 -13.379 -1.59028e-015 -0 13.7638 5.46074 -4.97949 90 -2.04997e-016 -7.95139e-016 -6.80382 -15.2035 175.733 -14.2797 -3.18056e-015 -1.59028e-015 13.4228 -1.47662 2.37184 90 -6.06643e-021 -0 
193.042 88.5675 -156.533 -152.893 -83.8529 118.818 -0.974172 -0.968562 -0.992225 -1.96538 -1.9195 -2.00102 -1.96538 -1.9195 -2.00103 -8.30748e-012 -9.0191e-006 -5.27751e-005 13.1383 2.40008 -2.03487 -177.144 -28.8407 -84.0943 -22.273 -41.3919 6.40882 -11.4917 -6.36111e-015 -4.77083e-015 -26.1933 -53.9931 -29.5132 -178.342 20.875 85.3563 -29.9311 37.4412 -1.41002 -6.91765 0 -1.59028e-015 -65.3264 67.3913 68.5024 -5.48358 11.335 -179.792 -13.39 1.59028e-015 3.97569e-016 13.7322 5.4212 -4.95666 90 8.44835e-016 -0 -6.9263 -15.142 175.761 -14.3351 -3.18056e-015 -7.95139e-016 13.4043 -1.54649 2.34385 90 2.57823e-020 -0 
193.073 88.5711 -156.509 -151.946 -83.8121 119.748 -0.969817 -0.955907 -0.989382 -1.95639 -1.89432 -1.99503 -1.95639 -1.89432 -1.99504 -8.30748e-012 -9.0191e-006 -5.27751e-005 13.2049 2.36527 -2.02623 -177.168 -28.8646 -84.1499 -22.3367 -41.4454 6.30617 -11.4146 -6.36111e-015 1.59028e-015 -26.3992 -53.9372 -29.7199 -178.343 20.9014 85.3632 -30.0328 37.6174 -1.33677 -6.81822 -3.18055e-015 7.95139e-016 -65.3113 67.3492 68.4801 -5.49098 11.4507 -179.741 -13.4037 -1.59028e-015 -1.98785e-015 13.7226 5.43572 -4.99644 90 -1.92573e-016 -3.97569e-016 -6.93796 -15.1618 175.803 -14.3269 6.36111e-015 7.95139e-016 13.3716 -1.63411 2.31652 90 -1.51661e-020 -0 
193.096 88.5749 -156.474 -151.536 -83.7684 120.133 -0.970146 -0.956166 -0.978659 -1.96364 -1.89496 -1.97365 -1.96364 -1.89496 -1.97366 -8.30728e-012 -9.0191e-006 -5.27751e-005 13.3047 2.36712 -2.04831 -177.177 -28.8994 -84.1738 -22.325 -41.4056 6.26584 -11.4171 -6.36111e-015 3.18055e-015 -26.3174 -53.9526 -29.6371 -178.346 20.9148 85.3762 -30.0957 37.6179 -1.2867 -6.83522 -3.18055e-015 -1.59028e-015 -65.3147 67.3781 68.4893 -5.53834 11.4926 -179.697 -13.4145 -3.18055e-015 -0 13.7165 5.42204 -4.98093 90 -6.21202e-016 3.97569e-016 -6.96372 -15.1979 175.851 -14.2958 0 7.95139e-016 13.3286 -1.71136 2.29262 90 3.79152e-021 -3.18055e-015 
193.114 88.5787 -156.446 -151.134 -83.7169 120.534 -0.971325 -0.95738 -0.972607 -1.97103 -1.89072 -1.96157 -1.97103 -1.89072 -1.96158 -8.30768e-012 -9.0191e-006 -5.27751e-005 13.3795 2.29301 -2.08104 -177.17 -28.9172 -84.1628 -22.3379 -41.4019 6.20779 -11.4486 0 3.18055e-015 -26.4292 -53.9244 -29.7497 -178.344 20.9311 85.3738 -30.2123 37.6423 -1.22037 -6.80788 3.18055e-015 -0 -65.2783 67.3484 68.4583 -5.55142 11.526 -179.684 -13.3628 0 -0 13.661 5.40652 -4.98041 90 -7.45443e-016 3.97569e-016 -7.00394 -15.1323 175.873 -14.2906 0 -0 13.3036 -1.71059 2.27192 90 5.30812e-021 -6.36111e-015 
193.13 88.5817 -156.421 -151.071 -83.6963 120.612 -0.973013 -0.959235 -0.973737 -1.97092 -1.88646 -1.96384 -1.97092 -1.88646 -1.96385 -8.30708e-012 -9.0191e-006 -5.27751e-005 13.4836 2.25024 -2.07492 -177.17 -28.9026 -84.1605 -22.4035 -41.2636 6.11801 -11.4826 0 -1.59028e-015 -26.4311 -53.9391 -29.7536 -178.33 20.9782 85.3449 -30.2448 37.5586 -1.18286 -6.87155 0 -0 -65.3471 67.3602 68.5196 -5.56481 11.5514 -179.688 -13.3323 0 -7.95139e-016 13.6266 5.40761 -4.99731 90 -6.83322e-017 1.19271e-015 -7.05498 -15.0675 175.868 -14.32 3.18056e-015 -0 13.2979 -1.68388 2.25619 90 -1.89576e-020 -3.18055e-015 
